<svg xmlns="http://www.w3.org/2000/svg" width="107.128" height="47.863" viewBox="0 0 107.128 47.863"><defs><style>.a{fill:none;}.b{fill:#f08532;}</style></defs><g transform="translate(-18.277 -39.5)"><path class="a" d="M80.9,74.424c0,2.124,1.125,3.374,3.124,3.374q3.374,0,3.374-4.5t-3.374-4.5A3.533,3.533,0,0,0,80.9,70.924Z" transform="translate(15.637 7.316)"/><path class="a" d="M69.7,74.775q0,1.875,2.624,1.875a3.016,3.016,0,0,0,3.249-3V72.9H72.2C71.325,72.9,69.7,73.15,69.7,74.775Z" transform="translate(12.84 8.34)"/><path class="a" d="M50.849,64.4H47.1v6.373h3.749c2,0,3.124-1.125,3.124-3.249C54.1,65.525,52.974,64.4,50.849,64.4Z" transform="translate(7.197 6.217)"/><path class="a" d="M100.274,68.7A3.222,3.222,0,0,0,96.9,71.824h6.373C103.148,69.7,102.149,68.7,100.274,68.7Z" transform="translate(19.632 7.291)"/><g transform="translate(18.277 39.5)"><path class="b" d="M51.723,62.5H46.35a1.252,1.252,0,0,0-1.25,1.25v16.5a1.252,1.252,0,0,0,1.25,1.25,1.344,1.344,0,0,0,1.25-1.25v-6.5h4c3.374,0,5.5-2.124,5.5-5.624C57.222,64.624,55.1,62.5,51.723,62.5ZM54.6,68.124c0,2.124-1.125,3.249-3.124,3.249H47.724V65h3.749C53.473,64.874,54.6,66,54.6,68.124Z" transform="translate(-11.58 -33.757)"/><path class="b" d="M62.649,68.223A4.894,4.894,0,0,0,59.4,69.348v-6.5a1.25,1.25,0,0,0-2.5,0V80.47a1.25,1.25,0,0,0,2.5,0V73.847c0-2.249,1-3.374,3.249-3.374,2.374,0,2.874,1.25,2.874,3.249V80.47a1.25,1.25,0,0,0,2.5,0V73.347C67.9,69.973,66.148,68.223,62.649,68.223Z" transform="translate(-8.633 -33.982)"/><path class="b" d="M73.324,66.9c-2.874,0-4.249,1.375-4.749,2.249a.936.936,0,0,0-.125.625A1.12,1.12,0,0,0,69.575,70.9a1.291,1.291,0,0,0,1-.5h0a3.455,3.455,0,0,1,2.874-1.25A2.466,2.466,0,0,1,76.2,71.774v.375H72.824c-3.124,0-5.124,1.625-5.124,4.124,0,2.624,1.875,4.249,5,4.249a5.418,5.418,0,0,0,3.5-1.25,1.233,1.233,0,0,0,1.25,1.125,1.252,1.252,0,0,0,1.25-1.25V71.774C78.572,68.775,76.573,66.9,73.324,66.9ZM76.2,74.4v.75a2.944,2.944,0,0,1-3.249,3q-2.624,0-2.624-1.875c0-1.625,1.625-1.875,2.624-1.875Z" transform="translate(-5.936 -32.658)"/><path class="b" d="M84.649,68.223A5.074,5.074,0,0,0,81.4,69.348v-6.5a1.25,1.25,0,1,0-2.5,0V76.1c0,3.5,2.124,5.624,5.624,5.624,3.749,0,5.874-2.374,5.874-6.873C90.4,69.348,87.273,68.223,84.649,68.223Zm-.125,2.249q3.374,0,3.374,4.5t-3.374,4.5c-2,0-3.124-1.25-3.124-3.374V72.472A3.933,3.933,0,0,1,84.524,70.473Z" transform="translate(-3.14 -33.982)"/><path class="b" d="M93.549,79.346c-.25,0-.75,0-.75-1.125V62.85a1.252,1.252,0,0,0-1.25-1.25,1.344,1.344,0,0,0-1.25,1.25V78.221c0,2.249,1.125,3.5,3.124,3.5A1.12,1.12,0,0,0,94.549,80.6,1.006,1.006,0,0,0,93.549,79.346Z" transform="translate(-0.293 -33.982)"/><path class="b" d="M106.272,72.524c0-.875-.25-5.624-5.5-5.624-3.749,0-5.874,2.5-5.874,6.748,0,5.624,3.374,6.873,6.124,6.873a6.735,6.735,0,0,0,4.5-1.625,1.142,1.142,0,0,0,.375-.875,1.12,1.12,0,0,0-1.125-1.125,1.34,1.34,0,0,0-.75.25,4.747,4.747,0,0,1-3,1.125A3.476,3.476,0,0,1,97.4,74.648h7.5C106.272,74.523,106.272,73.148,106.272,72.524Zm-8.873-.25a3.222,3.222,0,0,1,3.374-3.124c2,0,3,1,3,3.124Z" transform="translate(0.855 -32.658)"/><path class="b" d="M56.8,54a15.266,15.266,0,0,0,.375-3.249A11.035,11.035,0,0,0,51.8,40.875a9.563,9.563,0,0,0-3.749-.75H47.3a7.382,7.382,0,0,0-3.249.5,1.776,1.776,0,0,1-.75.25L43.05,41c-.125,0-.25.125-.375.125-.25.125-.375.25-.625.25h-.125A5.479,5.479,0,0,0,40.8,42a15.077,15.077,0,0,0-3,2.624,2.92,2.92,0,0,1-.875-.875,10.217,10.217,0,0,0-1.125-1l-.75-.75a7.694,7.694,0,0,0-5-2.5H27.179c-.5.125-1.125.25-1.75.375a8.517,8.517,0,0,0-3.5,2,7.281,7.281,0,0,0-1.375,1.875c-.375.75-.75,1.375-1.125,2.124-.125.25-.125.5-.25.75a14.712,14.712,0,0,0-.875,3.749c-.375,5.124,3,9.873,6.248,14a54.679,54.679,0,0,0,4.5,4.874l.75.75,1.375,1.375a33.562,33.562,0,0,0,4.874,4.5,1.35,1.35,0,0,0,.875.375,1.127,1.127,0,0,0,.625-.125,1.852,1.852,0,0,0,1-1.5,1.781,1.781,0,0,0-.75-1.5,27.2,27.2,0,0,1-4.374-4.124l-.875-.875a19.912,19.912,0,0,0-1.625-1.625c-1-1-1.875-2-2.874-3-3.5-4-5.5-7.748-6-11.372a9.942,9.942,0,0,1,1.875-6.748,5.11,5.11,0,0,1,3.624-2c2.374-.125,4.374,1.5,6.124,3.124a15.646,15.646,0,0,0,3,2.249,1.719,1.719,0,0,0,1.375.125,1.943,1.943,0,0,0,1-.75,9.269,9.269,0,0,1,1.875-2.374A12.345,12.345,0,0,1,42.8,44.624a17.22,17.22,0,0,1,2-.75,12.678,12.678,0,0,1,2.249-.5h2a3.74,3.74,0,0,1,1.375.375,5.434,5.434,0,0,1,.875.5c1.875,1.75,2.124,4.874,2,6.623a18.7,18.7,0,0,1-.625,3.874V55a18.578,18.578,0,0,1-3,6.124,2.122,2.122,0,0,1-.75.75h0a7.144,7.144,0,0,1-1,.875A24.259,24.259,0,0,1,43.8,65.369h-.125a6.744,6.744,0,0,1-3.624.625c-2-.125-3.749-1.625-5.249-2.874a1.606,1.606,0,0,0-2.374.125,1.577,1.577,0,0,0,0,2.249,11.44,11.44,0,0,0,6.748,3.874c2.5.375,5.249-.375,8.248-2.124A19.953,19.953,0,0,0,54.172,60,13.409,13.409,0,0,0,56.8,54Z" transform="translate(-18.277 -39.5)"/><path class="b" d="M36.349,55.049V51.8a2.128,2.128,0,0,0-4.249,0v3.249a2.082,2.082,0,0,0,2.124,2A2.006,2.006,0,0,0,36.349,55.049Z" transform="translate(-14.826 -36.928)"/><path class="b" d="M42.049,55.049V51.8a2.128,2.128,0,0,0-4.249,0v3.249a2.128,2.128,0,0,0,4.249,0Z" transform="translate(-13.402 -36.928)"/></g></g></svg>